<svg width="40" height="21" viewBox="0 0 40 21" fill="none" xmlns="http://www.w3.org/2000/svg">
<path fill-rule="evenodd" clip-rule="evenodd" d="M0 17.25C0 16.5596 0.559644 16 1.25 16H26.25C26.9404 16 27.5 16.5596 27.5 17.25C27.5 17.9404 26.9404 18.5 26.25 18.5H1.25C0.559644 18.5 0 17.9404 0 17.25Z" fill="#FFFBF9"/>
<path fill-rule="evenodd" clip-rule="evenodd" d="M12.5 9.75C12.5 9.05964 13.0596 8.5 13.75 8.5H38.75C39.4404 8.5 40 9.05964 40 9.75C40 10.4404 39.4404 11 38.75 11H26.25H13.75C13.0596 11 12.5 10.4404 12.5 9.75Z" fill="#FFFBF9"/>
<path fill-rule="evenodd" clip-rule="evenodd" d="M0 2.25C0 1.55964 0.559644 1 1.25 1H26.25C26.9404 1 27.5 1.55964 27.5 2.25C27.5 2.94036 26.9404 3.5 26.25 3.5H1.25C0.559644 3.5 0 2.94036 0 2.25Z" fill="#FFFBF9"/>
</svg>
