<svg width="293" height="129" viewBox="0 0 293 129" fill="none" xmlns="http://www.w3.org/2000/svg">
<g filter="url(#filter0_d_44_169)">
<path d="M158.363 16.6143L159.042 13.0735C158.68 8.17096 155.377 5.71967 149.132 5.71967C145.511 5.71967 142.344 7.03612 139.628 9.66897C137.004 12.2111 135.691 14.9347 135.691 17.8399C135.691 20.6544 136.868 23.1511 139.221 25.33C141.665 27.4179 144.561 29.3245 147.91 31.0497C151.349 32.6838 154.743 34.4994 158.092 36.497C161.531 38.4035 164.428 40.9 166.781 43.987C169.224 47.074 170.446 50.569 170.446 54.4731C170.446 62.5531 167.278 68.9084 160.943 73.5387C154.607 78.1689 147.774 80.484 140.443 80.484C133.112 80.484 127.003 79.1674 122.115 76.5347C117.228 73.811 114.784 69.7255 114.784 64.2782C114.784 61.3732 115.78 58.7399 117.771 56.3796C119.762 54.0193 122.613 52.8389 126.324 52.8389C127.772 52.8389 129.084 53.2474 130.261 54.0645C131.438 54.8816 132.162 55.9711 132.433 57.3329C132.433 58.6947 131.619 59.3756 129.989 59.3756C126.912 59.3756 125.374 60.6923 125.374 63.3249C125.464 66.321 126.867 69.0446 129.582 71.4959C132.388 73.9472 136.279 75.1728 141.258 75.1728C146.326 75.1728 150.625 73.4477 154.155 69.9979C157.775 66.5481 159.585 62.3717 159.585 57.4691C159.585 54.2007 158.363 51.2499 155.92 48.6172C153.476 45.9845 150.534 43.7599 147.095 41.9443C143.656 40.0377 140.171 38.1311 136.642 36.2246C133.203 34.318 130.261 32.0029 127.817 29.2793C125.374 26.5556 124.152 23.4688 124.152 20.0189C124.152 13.936 126.731 9.07886 131.89 5.44731C137.14 1.81575 143.067 0 149.675 0C154.11 0 158.137 0.907903 161.757 2.72365C165.378 4.5394 167.233 7.30849 167.324 11.0308C167.324 13.2097 166.781 15.0255 165.694 16.4781C164.608 17.9307 163.115 18.657 161.214 18.657C159.404 18.657 158.454 17.9761 158.363 16.6143Z" fill="#AB911D" fill-opacity="0.58"/>
<path d="M39.3564 27.5481L39.7046 25.7363C39.5189 23.2276 37.8242 21.9733 34.6205 21.9733C32.7632 21.9733 31.1381 22.6469 29.7452 23.9941C28.3987 25.2949 27.7255 26.6884 27.7255 28.1752C27.7255 29.6152 28.3291 30.8929 29.5363 32.0079C30.7899 33.0766 32.2757 34.0522 33.9936 34.9347C35.758 35.7709 37.4992 36.7002 39.2171 37.7221C40.9815 38.6976 42.4672 39.9754 43.6744 41.5547C44.9281 43.1341 45.5549 44.923 45.5549 46.9205C45.5549 51.0553 43.9298 54.3071 40.6797 56.6763C37.4295 59.0456 33.924 60.2303 30.1631 60.2303C26.4022 60.2303 23.2681 59.5568 20.7609 58.2094C18.2536 56.8157 17 54.7252 17 51.9378C17 50.451 17.5107 49.1041 18.5322 47.896C19.5537 46.688 21.0163 46.0842 22.9199 46.0842C23.6628 46.0842 24.3361 46.2933 24.9397 46.7114C25.5432 47.1295 25.9147 47.687 26.054 48.3838C26.054 49.0807 25.6361 49.4291 24.8004 49.4291C23.2217 49.4291 22.4324 50.1026 22.4324 51.45C22.4788 52.983 23.1985 54.3767 24.5914 55.6311C26.0308 56.8854 28.0273 57.5126 30.581 57.5126C33.1811 57.5126 35.3866 56.6301 37.1974 54.8645C39.0546 53.099 39.9832 50.9622 39.9832 48.4535C39.9832 46.7811 39.3564 45.2714 38.1028 43.924C36.8491 42.5766 35.3401 41.4388 33.5758 40.5095C31.8114 39.5339 30.0238 38.5583 28.213 37.5827C26.4486 36.6071 24.9397 35.4225 23.686 34.0288C22.4324 32.6351 21.8056 31.0557 21.8056 29.2902C21.8056 26.1776 23.1289 23.6922 25.7754 21.8339C28.4684 19.9757 31.5096 19.0465 34.899 19.0465C37.1741 19.0465 39.2403 19.5111 41.0975 20.4402C42.9547 21.3694 43.9066 22.7863 43.953 24.691C43.953 25.8059 43.6744 26.7353 43.1173 27.4784C42.5601 28.2215 41.794 28.5933 40.819 28.5933C39.8903 28.5933 39.4028 28.2449 39.3564 27.5481ZM71.2902 44.4118C73.1472 43.8081 74.4243 43.2969 75.1207 42.8787C75.8634 42.4144 76.4206 42.0659 76.7922 41.8335L77.628 41.3457C77.8603 41.2063 78.0459 41.1366 78.1851 41.1366C78.5568 41.1366 78.7423 41.3457 78.7423 41.7638C78.7423 42.1819 78.0225 42.925 76.5833 43.9937C75.1441 45.0156 73.3562 45.9449 71.2205 46.7811C70.8957 50.6834 69.6651 53.8427 67.5293 56.2582C65.3935 58.6738 62.3523 59.8818 58.4057 59.8818C55.5269 59.8818 53.3215 58.7435 51.7893 56.4673C50.2571 54.1443 49.491 51.45 49.491 48.3838C49.491 45.2714 50.3964 42.3447 52.2072 39.6035C54.0644 36.8624 56.4323 35.4921 59.3111 35.4921C60.6111 34.5628 62.1433 34.0984 63.9077 34.0984C65.7185 34.0984 67.39 35.0506 68.9222 36.9555C70.4544 38.8604 71.2439 41.3457 71.2902 44.4118ZM66.7632 47.9657L64.2559 48.1051C62.1201 48.1051 60.3093 47.4779 58.8235 46.2236C57.3377 44.923 56.5949 43.5059 56.5949 41.9728C56.5949 40.4398 56.8502 39.1158 57.361 38.0008C55.3645 39.5801 54.3662 42.6931 54.3662 47.3386C54.3662 49.5685 54.8305 51.7053 55.7591 53.7496C56.6877 55.747 58.1503 56.746 60.1468 56.746C62.1433 56.746 63.6988 55.9098 64.8131 54.2374C65.9274 52.5187 66.5775 50.4281 66.7632 47.9657ZM62.4451 36.398C61.7023 36.398 61.1219 36.7465 60.704 37.4433C60.2861 38.0939 60.0772 38.8136 60.0772 39.6035C60.0772 41.3223 60.6576 42.716 61.8183 43.7846C63.0255 44.8533 64.4185 45.3874 65.9971 45.3874H66.8328C66.74 43.1112 66.3453 41.0435 65.6489 39.1854C64.9988 37.3274 63.9309 36.398 62.4451 36.398ZM77.437 25.4575C77.437 24.6213 77.8783 23.9012 78.7603 23.2973C79.6423 22.6934 80.4318 22.3914 81.1282 22.3914C82.3819 22.3914 83.0087 23.1115 83.0087 24.5516C83.0087 25.9918 82.6371 27.2459 81.8943 28.3146C81.1516 29.3365 80.1069 29.8477 78.7603 29.8477C77.8783 29.8477 77.437 28.3843 77.437 25.4575ZM79.4567 59.8818C77.6459 59.8818 76.2764 59.51 75.3476 58.7669C75.0228 58.4419 74.8601 57.2801 74.8601 55.2826C74.8601 53.2852 74.9994 49.9632 75.278 45.3177C75.6028 40.6254 75.8814 38.0939 76.1137 37.7221C76.3461 37.3502 77.0654 36.6534 78.2728 35.6315C79.4801 34.6096 80.4084 34.0984 81.0586 34.0984C81.7551 34.0984 82.1033 34.9809 82.1033 36.7465C82.1033 37.2109 81.964 38.1168 81.6854 39.4642C81.4531 40.8116 81.1745 41.7872 80.8497 42.3909C80.2462 43.924 79.9443 47.9423 79.9443 54.4464C79.9443 55.7008 80.0835 56.3279 80.3621 56.3279C81.1516 56.2816 82.2426 55.306 83.6355 53.4011C85.0284 51.45 86.3979 48.9647 87.7446 45.9449C89.1375 42.925 89.9733 41.4154 90.2519 41.4154C90.5767 41.4154 90.7394 41.601 90.7394 41.9728C90.7394 43.2734 90.0663 45.3411 88.7197 48.1748C85.0518 55.9795 81.964 59.8818 79.4567 59.8818ZM98.8047 43.924C93.1868 43.924 89.6349 43.0415 88.1489 41.276C87.4062 40.3935 87.0346 39.3945 87.0346 38.2795C87.0346 37.1646 87.3594 36.3284 88.0096 35.7709C88.7061 35.1671 89.4259 34.865 90.1686 34.865C90.9581 34.865 91.6078 35.19 92.1187 35.8406C92.6296 36.4443 92.8848 37.0252 92.8848 37.5827C92.8848 38.4189 93.8136 39.0227 95.6707 39.3945C97.5277 39.7195 99.3385 39.8823 101.103 39.8823C102.914 37.3274 104.191 35.8868 104.934 35.5618C105.212 35.4687 105.514 35.4225 105.839 35.4225C106.582 35.4225 106.953 36.1656 106.953 37.6524C106.953 39.1392 106.628 40.277 105.978 41.0669C105.328 41.8569 104.191 42.6 102.566 43.2968C99.826 45.8055 97.1332 48.7089 94.4867 52.0075C95.6941 52.2862 97.5277 52.8437 99.9887 53.6799C102.45 54.4698 103.866 54.8645 104.237 54.8645C106.141 54.8645 108.486 51.775 111.271 45.5964C112.525 42.8091 113.291 41.4154 113.57 41.4154C113.895 41.4154 114.057 41.7638 114.057 42.4606C114.057 43.1575 113.384 45.0624 112.037 48.1748C108.462 56.212 105.073 60.2303 101.869 60.2303C101.544 60.2303 100.058 59.6494 97.4118 58.4882C94.7653 57.3269 92.7689 56.746 91.4223 56.746C90.2617 58.4647 89.1473 59.3244 88.0792 59.3244C87.3828 59.3244 87.0346 58.6972 87.0346 57.4429C87.0346 56.1423 87.5455 54.8645 88.5668 53.6102C89.6348 52.3096 90.772 51.659 91.9794 51.659C95.2294 48.0354 97.5049 45.4571 98.8047 43.924ZM113.28 25.4575C113.28 24.6213 113.722 23.9012 114.604 23.2973C115.486 22.6934 116.275 22.3914 116.971 22.3914C118.225 22.3914 118.852 23.1115 118.852 24.5516C118.852 25.9918 118.48 27.2459 117.738 28.3146C116.995 29.3365 115.95 29.8477 114.604 29.8477C113.722 29.8477 113.28 28.3843 113.28 25.4575ZM115.3 59.8818C113.489 59.8818 112.12 59.51 111.191 58.7669C110.866 58.4419 110.703 57.2801 110.703 55.2826C110.703 53.2852 110.843 49.9632 111.121 45.3177C111.446 40.6254 111.725 38.0939 111.957 37.7221C112.189 37.3502 112.909 36.6534 114.116 35.6315C115.323 34.6096 116.252 34.0984 116.902 34.0984C117.598 34.0984 117.947 34.9809 117.947 36.7465C117.947 37.2109 117.807 38.1168 117.529 39.4642C117.296 40.8116 117.018 41.7872 116.693 42.3909C116.089 43.924 115.787 47.9423 115.787 54.4464C115.787 55.7008 115.927 56.3279 116.205 56.3279C116.995 56.2816 118.086 55.306 119.479 53.4011C120.872 51.45 122.241 48.9647 123.588 45.9449C124.981 42.925 125.817 41.4154 126.095 41.4154C126.42 41.4154 126.583 41.601 126.583 41.9728C126.583 43.2734 125.91 45.3411 124.563 48.1748C120.895 55.9795 117.807 59.8818 115.3 59.8818ZM135.344 42.6L135.902 39.0461C135.902 38.5349 135.739 38.0705 135.414 37.6524C135.089 37.2343 134.671 37.0252 134.16 37.0252C132.443 37.0252 130.957 38.3258 129.703 40.9276C128.449 43.4825 127.823 45.9449 127.823 48.3142C127.823 50.6834 128.31 52.6112 129.285 54.098C130.26 55.538 131.444 56.2582 132.837 56.2582C134.276 56.2582 135.553 55.9332 136.668 55.2826C137.782 54.6321 138.803 53.7033 139.732 52.4953C141.682 49.9403 143.354 47.0364 144.747 43.7846C145.118 42.9484 145.397 42.3447 145.582 41.9728C145.815 41.601 146.047 41.4154 146.279 41.4154C146.557 41.4154 146.697 41.601 146.697 41.9728C146.697 43.5059 146.163 45.3411 145.095 47.4779C144.027 49.6148 143.121 51.2643 142.379 52.4256C141.682 53.5405 140.777 54.7252 139.662 55.9795C137.341 58.5812 134.439 59.8818 130.957 59.8818C128.31 59.8818 126.29 58.9525 124.898 57.0945C123.551 55.1896 122.878 53.1687 122.878 51.0319C122.878 45.7358 124.016 41.7175 126.29 38.9764C128.612 36.189 131.537 34.7953 135.066 34.7953C136.552 34.7953 137.712 35.19 138.548 35.9799C139.43 36.7231 139.871 37.5827 139.871 38.5583C139.871 40.3701 139.547 41.7175 138.896 42.6C138.246 43.4825 137.457 43.924 136.528 43.924C135.739 43.924 135.344 43.4825 135.344 42.6ZM172.978 60.9271C169.124 60.9271 166.501 59.2547 165.108 55.9098C164.133 53.6336 163.367 50.7531 162.809 47.2689C161.417 48.8482 160.488 49.9403 160.024 50.5441C159.559 51.1016 159.142 51.3803 158.77 51.3803C158.213 51.3803 157.934 51.1478 157.934 50.6834C157.934 50.4047 158.074 50.126 158.352 49.8472C159.977 48.2211 161.37 46.7348 162.531 45.3874C162.159 42.7394 161.974 39.9286 161.974 36.9555C161.974 33.9357 162.252 31.102 162.809 28.454C163.367 25.8059 164.295 23.5993 165.595 21.8339C166.942 20.0221 168.59 19.1162 170.54 19.1162C172.908 19.1162 174.092 21.1371 174.092 25.1788C174.092 30.3817 172.003 35.7475 167.824 41.276C168.149 45.4571 168.962 49.3828 170.262 53.0527C170.772 54.5395 171.33 55.6545 171.933 56.3976C172.583 57.0945 173.465 57.4429 174.58 57.4429C175.74 57.4429 177.017 56.6763 178.41 55.1433C179.849 53.5639 181.173 51.5431 182.38 49.0807C183.587 46.572 184.609 43.5756 185.444 40.0913C186.28 36.5608 186.698 32.8904 186.698 29.0811C186.698 25.2717 186.419 22.6004 185.862 21.0674C185.305 19.4879 184.353 18.0709 183.007 16.8166C181.242 15.33 180.36 13.8666 180.36 12.4265C180.36 11.7296 180.639 11.1257 181.196 10.6146C181.799 10.0572 182.403 9.77843 183.007 9.77843C184.539 9.77843 185.816 10.2662 186.837 11.2418C187.905 12.2174 188.672 13.5414 189.136 15.2138C189.971 18.1406 190.389 21.3461 190.389 24.8304C190.389 31.3807 189.484 37.4896 187.673 43.1575C185.909 48.8254 183.68 53.2155 180.987 56.3279C178.341 59.3941 175.671 60.9271 172.978 60.9271ZM171.446 26.0847C171.446 23.6225 171.167 22.3914 170.61 22.3914C170.238 22.3914 169.82 22.9489 169.356 24.0638C168.892 25.1788 168.474 26.7353 168.103 28.7327C167.731 30.7302 167.545 32.6813 167.545 34.5862C167.545 36.4911 167.569 37.838 167.615 38.628C170.169 34.3538 171.446 30.1727 171.446 26.0847ZM200.477 59.8818C197.876 59.8818 195.81 58.9063 194.278 56.9551C192.746 54.9576 191.98 52.7043 191.98 50.1957C191.98 45.1321 193.048 41.2994 195.183 38.6976C197.319 36.0959 200.082 34.7953 203.471 34.7953C205.05 34.7953 206.35 35.2368 207.372 36.1193C208.393 36.9555 208.904 38.1168 208.904 39.6035C208.904 42.3909 207.72 44.7368 205.352 46.6417C203.03 48.4998 200.175 49.4754 196.785 49.5685C196.971 51.3803 197.575 52.9596 198.596 54.3071C199.664 55.6077 200.894 56.2582 202.287 56.2582C203.68 56.2582 204.934 55.9332 206.048 55.2826C207.163 54.6321 208.184 53.7033 209.113 52.4953C211.063 49.9403 212.734 47.0364 214.127 43.7846C214.499 42.9484 214.777 42.3447 214.963 41.9728C215.195 41.601 215.427 41.4154 215.659 41.4154C215.938 41.4154 216.077 41.601 216.077 41.9728C216.077 44.2958 214.661 47.7801 211.829 52.4256C208.764 57.3966 204.98 59.8818 200.477 59.8818ZM196.785 47.896C199.525 47.4317 201.521 46.5486 202.775 45.248C204.075 43.9474 204.725 42.2516 204.725 40.161C204.725 38.0705 204.052 37.0252 202.705 37.0252C201.08 37.0252 199.71 38.1636 198.596 40.4398C197.482 42.6697 196.878 45.1549 196.785 47.896ZM217.816 55.7704L217.886 57.9307C217.886 59.2313 217.514 59.8818 216.772 59.8818C215.657 59.8818 214.589 59.7425 213.568 59.4637C212.547 59.1387 212.036 58.7206 212.036 58.2094C212.036 57.6519 212.152 55.8167 212.384 52.7043C212.662 49.5451 212.802 47.1758 212.802 45.5964V41.485C212.802 39.2551 213.034 37.9077 213.498 37.4433C213.962 36.9789 214.775 36.305 215.936 35.4225C217.143 34.54 218.002 34.0984 218.513 34.0984C219.07 34.0984 219.418 34.1915 219.557 34.3772C219.697 34.5628 219.766 34.9113 219.766 35.4225C219.766 37.8848 219.302 40.2073 218.373 42.3909C218.141 45.039 218.025 46.8742 218.025 47.896C218.211 47.6173 219.186 46.038 220.95 43.1575C222.715 40.277 224.2 38.1636 225.408 36.8162C226.661 35.4687 227.776 34.7953 228.751 34.7953C229.726 34.7953 230.585 35.1203 231.328 35.7709C232.117 36.4215 232.512 37.2343 232.512 38.2099C232.512 40.2541 232.279 43.2734 231.815 47.2689C231.397 51.2175 231.188 53.7262 231.188 54.7949C231.188 55.8167 231.328 56.3279 231.606 56.3279C232.396 56.2816 233.487 55.306 234.88 53.4011C236.272 51.45 237.642 48.9647 238.989 45.9449C240.382 42.925 241.217 41.4154 241.496 41.4154C241.821 41.4154 241.983 41.601 241.983 41.9728C241.983 43.2734 241.31 45.3411 239.964 48.1748C236.296 55.9795 233.208 59.8818 230.701 59.8818C228.89 59.8818 227.52 59.51 226.592 58.7669C226.267 58.4419 226.104 57.6057 226.104 56.2582C226.104 54.8645 226.22 52.6346 226.452 49.5685C226.731 46.4561 226.87 44.1331 226.87 42.6C226.87 41.0669 226.592 40.3004 226.034 40.3004C225.524 40.3004 224.131 41.9031 221.856 45.1087C219.581 48.2679 218.373 50.2887 218.234 51.1712C217.956 52.7974 217.816 54.3305 217.816 55.7704ZM246.726 59.8818C244.126 59.8818 242.06 58.9063 240.527 56.9551C238.995 54.9576 238.229 52.7043 238.229 50.1957C238.229 45.1321 239.297 41.2994 241.433 38.6976C243.568 36.0959 246.331 34.7953 249.721 34.7953C251.299 34.7953 252.6 35.2368 253.621 36.1193C254.642 36.9555 255.153 38.1168 255.153 39.6035C255.153 42.3909 253.969 44.7368 251.601 46.6417C249.279 48.4998 246.424 49.4754 243.035 49.5685C243.22 51.3803 243.824 52.9596 244.845 54.3071C245.914 55.6077 247.144 56.2582 248.537 56.2582C249.93 56.2582 251.183 55.9332 252.298 55.2826C253.412 54.6321 254.433 53.7033 255.362 52.4953C257.312 49.9403 258.984 47.0364 260.377 43.7846C260.748 42.9484 261.027 42.3447 261.212 41.9728C261.445 41.601 261.676 41.4154 261.909 41.4154C262.187 41.4154 262.327 41.601 262.327 41.9728C262.327 44.2958 260.91 47.7801 258.078 52.4256C255.014 57.3966 251.229 59.8818 246.726 59.8818ZM243.035 47.896C245.774 47.4317 247.771 46.5486 249.024 45.248C250.324 43.9474 250.974 42.2516 250.974 40.161C250.974 38.0705 250.301 37.0252 248.955 37.0252C247.329 37.0252 245.96 38.1636 244.845 40.4398C243.731 42.6697 243.128 45.1549 243.035 47.896ZM263.717 59.8818C262.696 59.8818 261.744 59.7659 260.862 59.5334C260.026 59.2547 259.515 58.9994 259.33 58.7669C258.866 58.2094 258.633 55.3289 258.633 50.126C258.633 44.8762 259.214 37.7683 260.374 28.8024C261.349 21.4158 263.624 17.7225 267.2 17.7225C268.035 17.7225 268.639 18.187 269.01 19.1162C269.382 19.9989 269.568 20.8583 269.568 21.6945C269.568 27.7337 267.733 34.4931 264.066 41.9728C263.926 45.8289 263.857 49.1967 263.857 52.0771C263.857 54.9108 264.112 56.3279 264.623 56.3279C265.412 56.2816 266.503 55.306 267.896 53.4011C269.289 51.45 270.659 48.9647 272.005 45.9449C273.398 42.925 274.234 41.4154 274.512 41.4154C274.837 41.4154 275 41.601 275 41.9728C275 43.2734 274.327 45.3411 272.98 48.1748C269.312 55.9795 266.225 59.8818 263.717 59.8818ZM267.826 22.3217C267.826 20.8351 267.641 20.0918 267.269 20.0918C265.876 20.0918 264.855 25.8756 264.205 37.4433C266.619 31.0786 267.826 26.0382 267.826 22.3217Z" fill="#FFFBF9"/>
</g>
<path d="M24.0294 93.32C25.8054 93.32 27.3574 93.664 28.6854 94.352C30.0294 95.024 31.0614 96 31.7814 97.28C32.5174 98.544 32.8854 100.024 32.8854 101.72C32.8854 103.416 32.5174 104.888 31.7814 106.136C31.0614 107.384 30.0294 108.344 28.6854 109.016C27.3574 109.672 25.8054 110 24.0294 110H18.5814V93.32H24.0294ZM24.0294 107.768C25.9814 107.768 27.4774 107.24 28.5174 106.184C29.5574 105.128 30.0774 103.64 30.0774 101.72C30.0774 99.784 29.5574 98.272 28.5174 97.184C27.4774 96.096 25.9814 95.552 24.0294 95.552H21.3174V107.768H24.0294ZM41.213 95.528V100.424H46.973V102.656H41.213V107.768H47.693V110H38.477V93.296H47.693V95.528H41.213ZM45.437 89.744L40.133 92.36V90.344L45.437 87.416V89.744ZM68.319 93.32L62.055 110H58.887L52.599 93.32H55.527L60.471 107.192L65.439 93.32H68.319ZM76.223 95.528V100.424H81.983V102.656H76.223V107.768H82.703V110H73.487V93.296H82.703V95.528H76.223ZM91.689 107.792H97.329V110H88.953V93.32H91.689V107.792ZM110.105 110.168C108.553 110.168 107.121 109.808 105.809 109.088C104.513 108.352 103.481 107.336 102.713 106.04C101.961 104.728 101.585 103.256 101.585 101.624C101.585 99.992 101.961 98.528 102.713 97.232C103.481 95.936 104.513 94.928 105.809 94.208C107.121 93.472 108.553 93.104 110.105 93.104C111.673 93.104 113.105 93.472 114.401 94.208C115.713 94.928 116.745 95.936 117.497 97.232C118.249 98.528 118.625 99.992 118.625 101.624C118.625 103.256 118.249 104.728 117.497 106.04C116.745 107.336 115.713 108.352 114.401 109.088C113.105 109.808 111.673 110.168 110.105 110.168ZM110.105 107.792C111.209 107.792 112.193 107.544 113.057 107.048C113.921 106.536 114.593 105.816 115.073 104.888C115.569 103.944 115.817 102.856 115.817 101.624C115.817 100.392 115.569 99.312 115.073 98.384C114.593 97.456 113.921 96.744 113.057 96.248C112.193 95.752 111.209 95.504 110.105 95.504C109.001 95.504 108.017 95.752 107.153 96.248C106.289 96.744 105.609 97.456 105.113 98.384C104.633 99.312 104.393 100.392 104.393 101.624C104.393 102.856 104.633 103.944 105.113 104.888C105.609 105.816 106.289 106.536 107.153 107.048C108.017 107.544 109.001 107.792 110.105 107.792ZM135.861 98.288C135.861 99.136 135.661 99.936 135.261 100.688C134.861 101.44 134.221 102.056 133.341 102.536C132.461 103 131.333 103.232 129.957 103.232H126.933V110H124.197V93.32H129.957C131.237 93.32 132.317 93.544 133.197 93.992C134.093 94.424 134.757 95.016 135.189 95.768C135.637 96.52 135.861 97.36 135.861 98.288ZM129.957 101C130.997 101 131.773 100.768 132.285 100.304C132.797 99.824 133.053 99.152 133.053 98.288C133.053 96.464 132.021 95.552 129.957 95.552H126.933V101H129.957ZM153.015 98.288C153.015 99.136 152.815 99.936 152.415 100.688C152.015 101.44 151.375 102.056 150.495 102.536C149.615 103 148.487 103.232 147.111 103.232H144.087V110H141.351V93.32H147.111C148.391 93.32 149.471 93.544 150.351 93.992C151.247 94.424 151.911 95.016 152.343 95.768C152.791 96.52 153.015 97.36 153.015 98.288ZM147.111 101C148.151 101 148.927 100.768 149.439 100.304C149.951 99.824 150.207 99.152 150.207 98.288C150.207 96.464 149.175 95.552 147.111 95.552H144.087V101H147.111ZM161.24 95.528V100.424H167V102.656H161.24V107.768H167.72V110H158.504V93.296H167.72V95.528H161.24ZM176.682 93.32V103.952C176.682 105.216 177.01 106.168 177.666 106.808C178.338 107.448 179.266 107.768 180.45 107.768C181.65 107.768 182.578 107.448 183.234 106.808C183.906 106.168 184.242 105.216 184.242 103.952V93.32H186.978V103.904C186.978 105.264 186.682 106.416 186.09 107.36C185.498 108.304 184.706 109.008 183.714 109.472C182.722 109.936 181.626 110.168 180.426 110.168C179.226 110.168 178.13 109.936 177.138 109.472C176.162 109.008 175.386 108.304 174.81 107.36C174.234 106.416 173.946 105.264 173.946 103.904V93.32H176.682ZM202.084 110L198.244 103.328H196.156V110H193.42V93.32H199.18C200.46 93.32 201.54 93.544 202.42 93.992C203.316 94.44 203.98 95.04 204.412 95.792C204.86 96.544 205.084 97.384 205.084 98.312C205.084 99.4 204.764 100.392 204.124 101.288C203.5 102.168 202.532 102.768 201.22 103.088L205.348 110H202.084ZM196.156 101.144H199.18C200.204 101.144 200.972 100.888 201.484 100.376C202.012 99.864 202.276 99.176 202.276 98.312C202.276 97.448 202.02 96.776 201.508 96.296C200.996 95.8 200.22 95.552 199.18 95.552H196.156V101.144ZM242.299 93.32L237.355 110H234.259L230.755 97.376L227.035 110L223.963 110.024L219.235 93.32H222.139L225.595 106.904L229.339 93.32H232.411L235.891 106.832L239.371 93.32H242.299ZM250.171 95.528V100.424H255.931V102.656H250.171V107.768H256.651V110H247.435V93.296H256.651V95.528H250.171ZM271.829 101.432C272.725 101.592 273.485 102.064 274.109 102.848C274.733 103.632 275.045 104.52 275.045 105.512C275.045 106.36 274.821 107.128 274.373 107.816C273.941 108.488 273.309 109.024 272.477 109.424C271.645 109.808 270.677 110 269.573 110H262.901V93.32H269.261C270.397 93.32 271.373 93.512 272.189 93.896C273.005 94.28 273.621 94.8 274.037 95.456C274.453 96.096 274.661 96.816 274.661 97.616C274.661 98.576 274.405 99.376 273.893 100.016C273.381 100.656 272.693 101.128 271.829 101.432ZM265.637 100.328H269.021C269.917 100.328 270.613 100.128 271.109 99.728C271.621 99.312 271.877 98.72 271.877 97.952C271.877 97.2 271.621 96.616 271.109 96.2C270.613 95.768 269.917 95.552 269.021 95.552H265.637V100.328ZM269.333 107.768C270.261 107.768 270.989 107.544 271.517 107.096C272.045 106.648 272.309 106.024 272.309 105.224C272.309 104.408 272.029 103.76 271.469 103.28C270.909 102.8 270.165 102.56 269.237 102.56H265.637V107.768H269.333Z" fill="#252525"/>
<defs>
<filter id="filter0_d_44_169" x="13" y="0" width="266" height="88.484" filterUnits="userSpaceOnUse" color-interpolation-filters="sRGB">
<feFlood flood-opacity="0" result="BackgroundImageFix"/>
<feColorMatrix in="SourceAlpha" type="matrix" values="0 0 0 0 0 0 0 0 0 0 0 0 0 0 0 0 0 0 127 0" result="hardAlpha"/>
<feOffset dy="4"/>
<feGaussianBlur stdDeviation="2"/>
<feComposite in2="hardAlpha" operator="out"/>
<feColorMatrix type="matrix" values="0 0 0 0 0 0 0 0 0 0 0 0 0 0 0 0 0 0 0.25 0"/>
<feBlend mode="normal" in2="BackgroundImageFix" result="effect1_dropShadow_44_169"/>
<feBlend mode="normal" in="SourceGraphic" in2="effect1_dropShadow_44_169" result="shape"/>
</filter>
</defs>
</svg>
